<svg xmlns="http://www.w3.org/2000/svg" viewBox="0 0 400 520" width="400" height="520">
  <!-- Background -->
  <rect width="400" height="520" fill="#ffffff" stroke="#e0e0e0" stroke-width="2"/>

  <!-- Header bar -->
  <rect y="0" width="400" height="60" fill="#2c3e50"/>

  <!-- Document icon -->
  <g transform="translate(170, 80)">
    <rect x="0" y="0" width="60" height="75" fill="#3498db" rx="3"/>
    <polygon points="40,0 60,20 60,0" fill="#2980b9"/>
    <rect x="10" y="30" width="40" height="4" fill="#ffffff" rx="2"/>
    <rect x="10" y="40" width="35" height="4" fill="#ffffff" rx="2"/>
    <rect x="10" y="50" width="40" height="4" fill="#ffffff" rx="2"/>
    <rect x="10" y="60" width="25" height="4" fill="#ffffff" rx="2"/>
  </g>

  <!-- Title -->
  <text x="200" y="200" text-anchor="middle" font-family="Georgia, serif" font-size="18" font-weight="bold" fill="#2c3e50">
    Research Paper
  </text>

  <!-- Paper Title -->
  <text x="200" y="240" text-anchor="middle" font-family="Arial, sans-serif" font-size="11" fill="#34495e">
    Real-Time Pedestrian-Vehicle
  </text>
  <text x="200" y="258" text-anchor="middle" font-family="Arial, sans-serif" font-size="11" fill="#34495e">
    Collision Risk Assessment
  </text>

  <!-- Author -->
  <text x="200" y="295" text-anchor="middle" font-family="Arial, sans-serif" font-size="12" fill="#7f8c8d">
    Veer Jhaveri
  </text>

  <!-- Divider -->
  <line x1="100" y1="320" x2="300" y2="320" stroke="#bdc3c7" stroke-width="1"/>

  <!-- Features -->
  <g font-family="Arial, sans-serif" font-size="10" fill="#7f8c8d">
    <text x="200" y="350" text-anchor="middle">Physics-Based CPA Algorithm</text>
    <text x="200" y="370" text-anchor="middle">Ground Plane Estimation</text>
    <text x="200" y="390" text-anchor="middle">Multi-Frame LPR Aggregation</text>
    <text x="200" y="410" text-anchor="middle">Real-Time Performance</text>
  </g>

  <!-- Download indicator -->
  <g transform="translate(165, 440)">
    <rect x="0" y="0" width="70" height="28" fill="#27ae60" rx="14"/>
    <text x="35" y="18" text-anchor="middle" font-family="Arial, sans-serif" font-size="11" fill="#ffffff" font-weight="bold">PDF</text>
  </g>

  <!-- Footer -->
  <text x="200" y="500" text-anchor="middle" font-family="Arial, sans-serif" font-size="9" fill="#bdc3c7">
    Click to Download
  </text>
</svg>
